<svg xmlns="http://www.w3.org/2000/svg" stroke="#03a9f4" stroke-width="4" xmlns:xlink="http://www.w3.org/1999/xlink" version="1.1" id="Capa_1" x="0px" y="0px" width="94.142px" height="94.142px" viewBox="0 0 94.142 94.142" style="enable-background:new 0 0 94.142 94.142;" xml:space="preserve">
<g>
	<g>
		<path d="M89.172,9.259L87.05,7.138l-0.022-0.023l-2.123-2.121c-5.205-5.205-11.756-7.09-16.961-1.887l-3.47,3.471l23.113,23.113    l3.468-3.471C96.26,21.018,94.376,14.463,89.172,9.259z"/>
		<path d="M54.32,16.732c-2.99,2.99-4.252,7.045-3.808,10.941c-2.109,0.574-4.103,1.68-5.759,3.336L9.022,72.395l-0.174,8.328    L0,89.6l4.517,4.52l8.927-8.864l8.325-0.111l41.385-35.73c1.655-1.656,2.762-3.652,3.334-5.76    c3.898,0.445,7.955-0.818,10.942-3.809l6.542-6.541L60.861,10.189L54.32,16.732z"/>
	</g>
</g>
<g>
</g>
<g>
</g>
<g>
</g>
<g>
</g>
<g>
</g>
<g>
</g>
<g>
</g>
<g>
</g>
<g>
</g>
<g>
</g>
<g>
</g>
<g>
</g>
<g>
</g>
<g>
</g>
<g>
</g>
</svg>