<?xml version="1.0" encoding="UTF-8"?>
<svg id="Capa_1" data-name="Capa 1" xmlns="http://www.w3.org/2000/svg" viewBox="0 0 1080 1080">
  <defs>
    <style>
      .cls-1 {
        fill: #fdfdfc;
        stroke: #fff;
        stroke-miterlimit: 10;
      }
    </style>
  </defs>
  <path class="cls-1" d="M527.31,954.11c-219.05-2.9-395.12-181.71-393.98-401.12,1.15-222.27,181.67-398.83,400.86-397.47,223.33,1.39,400.29,181.89,397.46,405.09-2.77,218.76-182.21,396.14-404.34,393.5Zm-285.15-127.89c86.5,96.08,246.51,162.28,416.86,105.81,80.51-26.69,145.54-75.37,195.65-143.85,24.11-32.95,42.44-68.89,55.45-108.09-3.37-.37-6.08-.66-8.78-.97-24.72-2.85-49.45-5.63-74.15-8.64-3.6-.44-7.45-1.31-10.52-3.11-12.73-7.47-25.41-15.06-37.68-23.24-5.56-3.71-10.94-5.22-17.43-4.19-2.94,.47-6.04-.17-9.06-.05-3.99,.17-8.23-.18-11.9,1.06-9.96,3.35-19.93,6.32-30.43,7.4-14.8,1.53-22.96-4.05-27.22-18.21-1.7-5.65-3.3-11.37-5.48-16.85-3.65-9.18-8.17-18.08-8.88-28.15-.4-5.7,.52-11.65-.82-17.08-1.56-6.34,5.46-8.28,5.36-13.43,0-.09,.4-.26,.62-.28,5.83-.47,7.5-4.95,9.53-9.4,1.08-2.37,2.82-5.48,4.92-6.13,3.81-1.19,6.02-3.71,8.21-6.44,3.13-3.89,6.25-7.83,8.96-12.02,6.52-10.07,10.3-20.74,7.93-33.14-1.91-9.95-6.91-17.05-16.4-20.48-4.19-1.51-6.25-4.22-6.81-8.23-.4-2.81-.36-5.71-.27-8.55,.16-5.07-.54-9.7-3.23-14.3-1.95-3.33-3-7.6-3.12-11.49-.13-4.53-.17-5.62-4.64-6.78-7.94-2.06-15.9-4.05-23.82-6.18-.89-.24-1.57-1.24-2.35-1.88,1.04-.04,2.13-.31,3.11-.07,1.37,.33,2.71,.94,3.96,1.61,5.94,3.16,12.26,4.25,18.96,4.14,9.25-.15,9.55,.43,9.15,9.7-.12,2.65,.24,5.38,.78,7.99,.89,4.25,2.41,8.38,3.1,12.65,.5,3.1,.1,6.34,.1,9.62,3.3-.03,5.21-1.55,5.83-4.46,.34-1.6,.36-3.3,.34-4.95-.06-5.42-.16-10.84-.37-16.26-.04-1-.47-2.1-1.03-2.95-2.42-3.7-3.02-7.72-2.33-11.99,.63-3.88,1.22-7.76,2-11.61,.4-1.97,.33-3.59-1.71-4.48-2.6-1.13-2.79-2.8-2-5.41,2.16-7.07,1.11-14.43-2.09-20.52-2.79-5.29-4.57-10.61-6-16.23-1.41-5.54-2.64-11.13-4.19-16.63-4.82-17.14-11.62-33.29-23.87-46.63-1.77-1.93-4.38-3.48-5.28-5.73-3.4-8.5-10.61-12.83-17.63-17.58-6.15-4.17-13.45-6.84-17.91-13.32-.28-.41-1.02-.62-1.58-.69-8.15-.97-15.13-4.89-22.07-8.83-15.68-8.9-32.59-14.22-50.42-15.73-12.65-1.08-25.45-.59-38.17-.48-11.31,.1-22.57,.81-33.63-2.81-5.29-1.74-10.78-.73-16.11,1.2-4.57,1.66-9.43,2.49-14.03,4.07-7.73,2.66-15.66,5.03-22.94,8.65-7.64,3.79-14.67,8.85-21.9,13.45-19.39,12.32-38.76,24.69-58.14,37.03-1.89,1.2-3.23,2.45-3.09,5.09,.08,1.45-1.02,3.07-1.87,4.44-2.34,3.79-5.67,7.21-7.05,11.3-1.81,5.38-4.35,9.38-9.8,11.2-2.89,.96-3.91,2.79-3.88,5.9,.14,13.23-.23,26.46,.06,39.68,.37,16.83-.97,33.86,4.82,50.49-4.94,1.62-9.94,3.06-14.8,4.9-12.8,4.84-25.56,9.8-38.28,14.85-1.53,.61-3.66,1.87-3.91,3.14-.89,4.55-1.08,9.24-1.62,14.71,7.72-8.51,16.88-13.38,26.83-16.36,17.32-5.19,34.84-9.7,52.28-14.48,1.78-.49,3.61-.82,5.42-1.22,.25,.4,.5,.8,.75,1.2-1.15,.93-2.17,2.33-3.49,2.73-6.15,1.83-12.65,2.73-18.52,5.18-13.64,5.69-27.81,9.15-42.29,11.5-5.18,.84-9.4,3.19-13.35,6.32-9.74,7.72-9.56,14.88,1.09,21.2,7.45,4.42,14.49,10.07,23.81,10.49,1.72,.08,3.45,.92,5.08,1.64,6.57,2.93,13.31,4.97,20.54,5.7,4.94,.5,9.81,1.87,14.67,3.03,2.33,.56,4.64,2.08,4.09,4.64-.84,3.88-2.3,7.68-4.02,11.27-.52,1.09-2.68,1.7-4.19,1.97-6.24,1.13-12.26-.43-18.33-1.66-2.09-.42-4.33-.07-6.51-.07-.18,.33-.36,.67-.54,1,4.76,5.47,9.53,10.94,14.64,16.82-2.73,1.08-5.3,2.09-8.96,3.53,3.33,2.63,6.15,4.66,8.72,6.97,1.29,1.16,2.99,2.83,2.97,4.26-.04,2.84,1.18,4.52,3.25,5.89,1.57,1.04,3.25,1.94,4.94,2.8,2.89,1.46,6.12,7.15,5.54,10.06-.61,3.07-3.3,1.44-4.97,2.14-.15,.06-.19,.38-.36,.73,.77,.5,1.55,1.01,2.34,1.51,3.39,2.2,3.79,4.23,1.21,7.29-1.13,1.35-2.5,2.56-3.94,3.6-2.17,1.57-4.5,2.94-7.52,4.88,2.64,1.52,4.6,3.25,6.85,3.84,8.15,2.14,16.37,4.07,24.64,5.75,8.16,1.67,15.33,4.22,20.12,12,2.44,3.97,6.6,7.16,10.58,9.82,3.22,2.16,5.05,4.52,5.21,8.27,.28,6.43,1.19,12.91,.65,19.26-.63,7.5,2.11,12.16,8.11,16.54,8.93,6.53,17.19,14.11,22.33,24.24,2.51,4.95,6.45,7.41,11.62,8.49,2.06,.43,4.09,.98,6.82,1.64-4.95,12.48-7.06,24.95-3.31,38.47-3.97-.53-6.81-.92-10.42-1.4,1.69-2.76,2.7-5.12,4.34-6.89,1.99-2.17,2.67-4.32,1.83-7.16-3.98-.71-6.75,1.16-8.99,3.98-3.83,4.82-8.3,8.67-13.89,11.49-11.78,5.95-23.64,11.83-34.9,18.68-10.53,6.4-22.94,9.24-32.37,17.64-1.35,1.2-3.48,1.49-5.19,2.33-4.47,2.2-9.7,3.64-13.12,6.95-3.22,3.11-6.77,4.87-10.51,6.79-15.24,7.83-30.44,15.77-45.62,23.71-8.76,4.58-15.09,11.79-20.98,19.43Z"/>
</svg>