<svg xmlns="http://www.w3.org/2000/svg" id="Capa_1" data-name="Capa 1" viewBox="64.51 45.12 950.98 951.15">  <defs>    <style>      .cls-1 {        fill: #fff;        font-family: GoboldBold, 'Gobold Bold';        font-size: 56.93px;        stroke: #fff;      }    </style>  </defs>  <text class="cls-1" transform="translate(390.2 124.1) rotate(-18.9)"><tspan x="0" y="0">L</tspan></text>  <text class="cls-1" transform="translate(414.56 115.67) rotate(-15.14)"><tspan x="0" y="0">O</tspan></text>  <text class="cls-1" transform="translate(442.87 107.98) rotate(-11.15)"><tspan x="0" y="0">S</tspan></text>  <text class="cls-1" transform="translate(471.89 102.45) rotate(-8.23)"><tspan x="0" y="0"> </tspan></text>  <text class="cls-1" transform="translate(485.26 100.29) rotate(-5.27)"><tspan x="0" y="0">A</tspan></text>  <text class="cls-1" transform="translate(515.08 97.43) rotate(-.93)"><tspan x="0" y="0">M</tspan></text>  <text class="cls-1" transform="translate(556.98 97.32) rotate(3.38)"><tspan x="0" y="0">I</tspan></text>  <text class="cls-1" transform="translate(573.14 98.08) rotate(6.45)"><tspan x="0" y="0">G</tspan></text>  <text class="cls-1" transform="translate(602.29 101.34) rotate(10.42)"><tspan x="0" y="0">O</tspan></text>  <text class="cls-1" transform="translate(631.15 106.62) rotate(14.41)"><tspan x="0" y="0">S</tspan></text>  <text class="cls-1" transform="translate(659.71 114.16) rotate(17.35)"><tspan x="0" y="0"> </tspan></text>  <text class="cls-1" transform="translate(672.69 117.97) rotate(20.32)"><tspan x="0" y="0">D</tspan></text>  <text class="cls-1" transform="translate(700.74 128.39) rotate(24.19)"><tspan x="0" y="0">E</tspan></text>  <text class="cls-1" transform="translate(725.39 139.63) rotate(26.95)"><tspan x="0" y="0"> </tspan></text>  <text class="cls-1" transform="translate(737.58 145.27) rotate(30.71)"><tspan x="0" y="0">M</tspan></text>  <text class="cls-1" transform="translate(773.46 167.06) rotate(34.62)"><tspan x="0" y="0">I</tspan></text>  <text class="cls-1" transform="translate(786.88 176.09) rotate(37.7)"><tspan x="0" y="0">G</tspan></text>  <text class="cls-1" transform="translate(810.11 194) rotate(41.69)"><tspan x="0" y="0">U</tspan></text>  <text class="cls-1" transform="translate(832.43 213.91) rotate(45.5)"><tspan x="0" y="0">E</tspan></text>  <text class="cls-1" transform="translate(851.33 233.14) rotate(49.05)"><tspan x="0" y="0">L</tspan></text>  <text class="cls-1" transform="translate(868.26 252.85) rotate(51.71)"><tspan x="0" y="0"> </tspan></text>  <text class="cls-1" transform="translate(876.79 263.65) rotate(53.57)"><tspan x="0" y="0"> </tspan></text>  <text class="cls-1" transform="translate(884.97 274.73) rotate(55.43)"><tspan x="0" y="0"> </tspan></text>  <text class="cls-1" transform="translate(892.79 285.88) rotate(57.88)"><tspan x="0" y="0">-</tspan></text>  <text class="cls-1" transform="translate(904.82 305.21) rotate(60.34)"><tspan x="0" y="0"> </tspan></text>  <text class="cls-1" transform="translate(911.63 317.17) rotate(62.21)"><tspan x="0" y="0"> </tspan></text>  <text class="cls-1" transform="translate(918.05 329.33) rotate(64.08)"><tspan x="0" y="0"> </tspan></text>  <text class="cls-1" transform="translate(924.07 341.69) rotate(65.94)"><tspan x="0" y="0"> </tspan></text>  <text class="cls-1" transform="translate(929.69 354.27) rotate(67.82)"><tspan x="0" y="0"> </tspan></text>  <text class="cls-1" transform="translate(934.96 366.78) rotate(70.51)"><tspan x="0" y="0">L</tspan></text>  <text class="cls-1" transform="translate(943.64 391.07) rotate(74.27)"><tspan x="0" y="0">O</tspan></text>  <text class="cls-1" transform="translate(951.62 419.29) rotate(78.27)"><tspan x="0" y="0">S</tspan></text>  <text class="cls-1" transform="translate(957.44 448.26) rotate(81.19)"><tspan x="0" y="0"> </tspan></text>  <text class="cls-1" transform="translate(959.74 461.61) rotate(84.15)"><tspan x="0" y="0">A</tspan></text>  <text class="cls-1" transform="translate(963.07 491.32) rotate(88.95)"><tspan x="0" y="0">M</tspan></text>  <text class="cls-1" transform="translate(963.43 533.3) rotate(92.81)"><tspan x="0" y="0">I</tspan></text>  <text class="cls-1" transform="translate(962.83 549.45) rotate(95.87)"><tspan x="0" y="0">G</tspan></text>  <text class="cls-1" transform="translate(959.86 578.64) rotate(99.84)"><tspan x="0" y="0">O</tspan></text>  <text class="cls-1" transform="translate(954.87 607.54) rotate(103.83)"><tspan x="0" y="0">S</tspan></text>  <text class="cls-1" transform="translate(947.63 636.18) rotate(106.76)"><tspan x="0" y="0"> </tspan></text>  <text class="cls-1" transform="translate(943.95 649.2) rotate(109.73)"><tspan x="0" y="0">D</tspan></text>  <text class="cls-1" transform="translate(933.82 677.37) rotate(113.6)"><tspan x="0" y="0">E</tspan></text>  <text class="cls-1" transform="translate(922.83 702.13) rotate(116.37)"><tspan x="0" y="0"> </tspan></text>  <text class="cls-1" transform="translate(917.32 714.36) rotate(120.12)"><tspan x="0" y="0">M</tspan></text>  <text class="cls-1" transform="translate(895.89 750.45) rotate(124.04)"><tspan x="0" y="0">I</tspan></text>  <text class="cls-1" transform="translate(886.99 763.97) rotate(127.12)"><tspan x="0" y="0">G</tspan></text>  <text class="cls-1" transform="translate(869.32 787.39) rotate(131.11)"><tspan x="0" y="0">U</tspan></text>  <text class="cls-1" transform="translate(849.63 809.91) rotate(134.93)"><tspan x="0" y="0">E</tspan></text>  <text class="cls-1" transform="translate(830.59 829) rotate(138.47)"><tspan x="0" y="0">L</tspan></text>  <text class="cls-1" transform="translate(811.05 846.12) rotate(141.14)"><tspan x="0" y="0"> </tspan></text>  <text class="cls-1" transform="translate(800.35 854.76) rotate(142.99)"><tspan x="0" y="0"> </tspan></text>  <text class="cls-1" transform="translate(789.36 863.05) rotate(144.84)"><tspan x="0" y="0"> </tspan></text>  <text class="cls-1" transform="translate(778.11 870.98) rotate(146.7)"><tspan x="0" y="0"> </tspan></text>  <text class="cls-1" transform="translate(766.75 878.57) rotate(149.16)"><tspan x="0" y="0">-</tspan></text>  <text class="cls-1" transform="translate(747.18 890.15) rotate(151.63)"><tspan x="0" y="0"> </tspan></text>  <text class="cls-1" transform="translate(735.09 896.69) rotate(153.49)"><tspan x="0" y="0"> </tspan></text>  <text class="cls-1" transform="translate(722.77 902.84) rotate(155.37)"><tspan x="0" y="0"> </tspan></text>  <text class="cls-1" transform="translate(710.27 908.57) rotate(157.24)"><tspan x="0" y="0"> </tspan></text>  <text class="cls-1" transform="translate(697.79 913.98) rotate(159.93)"><tspan x="0" y="0">L</tspan></text>  <text class="cls-1" transform="translate(673.61 922.91) rotate(163.69)"><tspan x="0" y="0">O</tspan></text>  <text class="cls-1" transform="translate(645.46 931.17) rotate(167.68)"><tspan x="0" y="0">S</tspan></text>  <text class="cls-1" transform="translate(616.55 937.29) rotate(170.61)"><tspan x="0" y="0"> </tspan></text>  <text class="cls-1" transform="translate(603.21 939.73) rotate(173.57)"><tspan x="0" y="0">A</tspan></text>  <text class="cls-1" transform="translate(573.57 943.35) rotate(178.38)"><tspan x="0" y="0">M</tspan></text>  <text class="cls-1" transform="translate(531.58 944.13) rotate(-177.77)"><tspan x="0" y="0">I</tspan></text>  <text class="cls-1" transform="translate(515.42 943.69) rotate(-174.71)"><tspan x="0" y="0">G</tspan></text>  <text class="cls-1" transform="translate(486.21 941.02) rotate(-170.74)"><tspan x="0" y="0">O</tspan></text>  <text class="cls-1" transform="translate(457.24 936.32) rotate(-166.76)"><tspan x="0" y="0">S</tspan></text>  <text class="cls-1" transform="translate(428.56 929.38) rotate(-163.82)"><tspan x="0" y="0"> </tspan></text>  <text class="cls-1" transform="translate(415.46 925.81) rotate(-160.84)"><tspan x="0" y="0">D</tspan></text>  <text class="cls-1" transform="translate(387.23 915.98) rotate(-156.98)"><tspan x="0" y="0">E</tspan></text>  <text class="cls-1" transform="translate(362.34 905.24) rotate(-154.21)"><tspan x="0" y="0"> </tspan></text>  <text class="cls-1" transform="translate(350.07 899.86) rotate(-150.46)"><tspan x="0" y="0">M</tspan></text>  <text class="cls-1" transform="translate(313.73 878.79) rotate(-146.53)"><tspan x="0" y="0">I</tspan></text>  <text class="cls-1" transform="translate(300.15 870.04) rotate(-143.46)"><tspan x="0" y="0">G</tspan></text>  <text class="cls-1" transform="translate(276.56 852.6) rotate(-139.47)"><tspan x="0" y="0">U</tspan></text>  <text class="cls-1" transform="translate(253.84 833.14) rotate(-135.65)"><tspan x="0" y="0">e</tspan></text>  <text class="cls-1" transform="translate(234.56 814.3) rotate(-132.1)"><tspan x="0" y="0">l</tspan></text>  <text class="cls-1" transform="translate(217.24 794.93) rotate(-129.44)"><tspan x="0" y="0"> </tspan></text>  <text class="cls-1" transform="translate(208.48 784.3) rotate(-127.59)"><tspan x="0" y="0"> </tspan></text>  <text class="cls-1" transform="translate(200.1 773.42) rotate(-125.73)"><tspan x="0" y="0"> </tspan></text>  <text class="cls-1" transform="translate(192.05 762.24) rotate(-123.88)"><tspan x="0" y="0"> </tspan></text>  <text class="cls-1" transform="translate(184.36 750.98) rotate(-121.42)"><tspan x="0" y="0">-</tspan></text>  <text class="cls-1" transform="translate(172.56 731.5) rotate(-118.95)"><tspan x="0" y="0"> </tspan></text>  <text class="cls-1" transform="translate(165.91 719.48) rotate(-117.09)"><tspan x="0" y="0"> </tspan></text>  <text class="cls-1" transform="translate(159.64 707.23) rotate(-115.22)"><tspan x="0" y="0"> </tspan></text>  <text class="cls-1" transform="translate(153.77 694.79) rotate(-113.35)"><tspan x="0" y="0"> </tspan></text>  <text class="cls-1" transform="translate(148.31 682.17) rotate(-111.48)"><tspan x="0" y="0"> </tspan></text>  <text class="cls-1" transform="translate(143.19 669.56) rotate(-108.78)"><tspan x="0" y="0">L</tspan></text>  <text class="cls-1" transform="translate(134.81 645.18) rotate(-105.02)"><tspan x="0" y="0">O</tspan></text>  <text class="cls-1" transform="translate(127.18 616.84) rotate(-101.03)"><tspan x="0" y="0">S</tspan></text>  <text class="cls-1" transform="translate(121.71 587.81) rotate(-98.1)"><tspan x="0" y="0"> </tspan></text>  <text class="cls-1" transform="translate(119.58 574.42) rotate(-95.15)"><tspan x="0" y="0">A</tspan></text>  <text class="cls-1" transform="translate(116.82 544.6) rotate(-90.93)"><tspan x="0" y="0">M</tspan></text>  <text class="cls-1" transform="translate(116.76 502.71) rotate(-86.5)"><tspan x="0" y="0">I</tspan></text>  <text class="cls-1" transform="translate(117.55 486.56) rotate(-83.43)"><tspan x="0" y="0">G</tspan></text>  <text class="cls-1" transform="translate(120.88 457.41) rotate(-79.46)"><tspan x="0" y="0">O</tspan></text>  <text class="cls-1" transform="translate(126.22 428.57) rotate(-75.47)"><tspan x="0" y="0">S</tspan></text>  <text class="cls-1" transform="translate(133.82 400.03) rotate(-72.53)"><tspan x="0" y="0"> </tspan></text>  <text class="cls-1" transform="translate(137.66 387.04) rotate(-69.56)"><tspan x="0" y="0">D</tspan></text>  <text class="cls-1" transform="translate(148.14 359.02) rotate(-65.69)"><tspan x="0" y="0">E</tspan></text>  <text class="cls-1" transform="translate(159.43 334.39) rotate(-62.93)"><tspan x="0" y="0"> </tspan></text>  <text class="cls-1" transform="translate(165.09 322.23) rotate(-59.17)"><tspan x="0" y="0">M</tspan></text>  <text class="cls-1" transform="translate(186.96 286.39) rotate(-55.26)"><tspan x="0" y="0">I</tspan></text>  <text class="cls-1" transform="translate(196.02 272.99) rotate(-52.18)"><tspan x="0" y="0">G</tspan></text>  <text class="cls-1" transform="translate(213.98 249.8) rotate(-48.19)"><tspan x="0" y="0">U</tspan></text>  <text class="cls-1" transform="translate(233.95 227.51) rotate(-44.38)"><tspan x="0" y="0">E</tspan></text>  <text class="cls-1" transform="translate(253.19 208.68) rotate(-40.83)"><tspan x="0" y="0">L</tspan></text>  <text class="cls-1" transform="translate(272.97 191.76) rotate(-38.16)"><tspan x="0" y="0"> </tspan></text>  <text class="cls-1" transform="translate(283.78 183.25) rotate(-36.31)"><tspan x="0" y="0"> </tspan></text>  <text class="cls-1" transform="translate(294.71 175.09) rotate(-33.85)"><tspan x="0" y="0">-</tspan></text></svg>
